<svg xmlns="http://www.w3.org/2000/svg" width="14.137" height="16.707" viewBox="0 0 14.137 16.707"><g transform="translate(0)"><g transform="translate(0)"><path d="M48.972,7.747a4.284,4.284,0,1,0-5.037,0,7.08,7.08,0,0,0-4.55,6.6,2.359,2.359,0,0,0,2.356,2.356h9.425a2.359,2.359,0,0,0,2.356-2.356A7.08,7.08,0,0,0,48.972,7.747ZM43.455,4.284a3,3,0,1,1,3,3A3,3,0,0,1,43.455,4.284Zm7.711,11.138H41.741a1.072,1.072,0,0,1-1.071-1.071,5.783,5.783,0,0,1,11.567,0A1.072,1.072,0,0,1,51.166,15.422Z" transform="translate(-39.385)"/></g></g></svg>