<svg xmlns="http://www.w3.org/2000/svg" width="16.706" height="16.707" viewBox="0 0 16.706 16.707"><path d="M12.28,12.791V14.1a2.613,2.613,0,0,1-2.611,2.61H3.111A2.613,2.613,0,0,1,.5,14.1V2.61A2.613,2.613,0,0,1,3.111,0H9.669A2.613,2.613,0,0,1,12.28,2.61V3.916a.653.653,0,0,1-1.305,0V2.61A1.307,1.307,0,0,0,9.669,1.305H3.111A1.307,1.307,0,0,0,1.805,2.61V14.1A1.307,1.307,0,0,0,3.111,15.4H9.669A1.307,1.307,0,0,0,10.975,14.1V12.791a.653.653,0,0,1,1.305,0Zm4.449-5.559L15.268,5.771a.653.653,0,1,0-.923.923l1.039,1.04H7.548a.653.653,0,1,0,0,1.305h7.836l-1.039,1.04a.653.653,0,1,0,.923.923L16.729,9.54a1.633,1.633,0,0,0,0-2.307Zm0,0" transform="translate(-0.5)"/></svg>