<svg xmlns="http://www.w3.org/2000/svg" width="18" height="16.235" viewBox="0 0 18 16.235"><defs><style>.a{fill:none;stroke:#000;stroke-width:2px;}</style></defs><path class="a" d="M14.731,1.393A4.3,4.3,0,0,0,11.531,0,4.025,4.025,0,0,0,9.017.868,5.143,5.143,0,0,0,8,1.929,5.141,5.141,0,0,0,6.984.868,4.025,4.025,0,0,0,4.47,0a4.3,4.3,0,0,0-3.2,1.393A5,5,0,0,0,0,4.808a5.955,5.955,0,0,0,1.587,3.9A33.839,33.839,0,0,0,5.56,12.435c.55.469,1.174,1,1.822,1.567a.939.939,0,0,0,1.237,0c.648-.567,1.272-1.1,1.823-1.568a33.82,33.82,0,0,0,3.972-3.728A5.955,5.955,0,0,0,16,4.808a5,5,0,0,0-1.269-3.415Zm0,0" transform="translate(1 1)"/></svg>