<svg xmlns="http://www.w3.org/2000/svg" width="36.199" height="32.206" viewBox="0 0 36.199 32.206"><defs><style>.a{fill:#609;}</style></defs><path class="a" d="M33.328,3.152A9.734,9.734,0,0,0,26.087,0,9.107,9.107,0,0,0,20.4,1.963a11.637,11.637,0,0,0-2.3,2.4,11.63,11.63,0,0,0-2.3-2.4A9.105,9.105,0,0,0,10.113,0,9.735,9.735,0,0,0,2.872,3.152,11.315,11.315,0,0,0,0,10.879c0,3.061,1.141,5.864,3.59,8.819a76.559,76.559,0,0,0,8.987,8.436C13.823,29.2,15.235,30.4,16.7,31.68a2.125,2.125,0,0,0,2.8,0c1.466-1.282,2.878-2.485,4.124-3.547A76.516,76.516,0,0,0,32.61,19.7c2.449-2.955,3.59-5.758,3.59-8.819a11.314,11.314,0,0,0-2.872-7.727Zm0,0" transform="translate(0)"/></svg>