<svg xmlns="http://www.w3.org/2000/svg" width="26" height="23.352" viewBox="0 0 26 23.352"><defs><style>.a{fill:none;stroke:#000;stroke-width:2px;}</style></defs><path class="a" d="M22.1,2.09A6.454,6.454,0,0,0,17.3,0a6.038,6.038,0,0,0-3.771,1.3A7.715,7.715,0,0,0,12,2.894,7.711,7.711,0,0,0,10.476,1.3,6.037,6.037,0,0,0,6.7,0,6.454,6.454,0,0,0,1.9,2.09,7.5,7.5,0,0,0,0,7.213a8.933,8.933,0,0,0,2.38,5.847,50.759,50.759,0,0,0,5.959,5.593c.826.7,1.761,1.5,2.733,2.351a1.409,1.409,0,0,0,1.855,0c.972-.85,1.908-1.648,2.734-2.352A50.73,50.73,0,0,0,21.62,13.06,8.932,8.932,0,0,0,24,7.213,7.5,7.5,0,0,0,22.1,2.09Zm0,0" transform="translate(1 1)"/></svg>