<svg xmlns="http://www.w3.org/2000/svg" width="35.637" height="35.637" viewBox="0 0 35.637 35.637"><defs><style>.a{fill:#fff;}</style></defs><path class="a" d="M213.907,210.454A3.454,3.454,0,1,1,210.454,207,3.454,3.454,0,0,1,213.907,210.454Zm0,0" transform="translate(-192.635 -192.635)"/><path class="a" d="M152.056,137.872a3.431,3.431,0,0,0-1.966-1.966,5.733,5.733,0,0,0-1.924-.357c-1.093-.05-1.42-.061-4.187-.061s-3.094.01-4.187.06a5.736,5.736,0,0,0-1.924.357,3.433,3.433,0,0,0-1.967,1.966,5.735,5.735,0,0,0-.357,1.924c-.05,1.092-.061,1.42-.061,4.187s.011,3.094.061,4.187a5.733,5.733,0,0,0,.357,1.924,3.431,3.431,0,0,0,1.966,1.966,5.726,5.726,0,0,0,1.924.357c1.092.05,1.42.06,4.187.06s3.095-.01,4.187-.06a5.726,5.726,0,0,0,1.924-.357,3.431,3.431,0,0,0,1.966-1.966,5.738,5.738,0,0,0,.357-1.924c.05-1.093.06-1.42.06-4.187s-.01-3.094-.06-4.187A5.726,5.726,0,0,0,152.056,137.872ZM143.979,149.3a5.32,5.32,0,1,1,5.32-5.32A5.32,5.32,0,0,1,143.979,149.3Zm5.531-9.608a1.243,1.243,0,1,1,1.243-1.243A1.243,1.243,0,0,1,149.509,139.7Zm0,0" transform="translate(-126.161 -126.164)"/><path class="a" d="M17.818,0A17.818,17.818,0,1,0,35.637,17.818,17.82,17.82,0,0,0,17.818,0Zm10.17,22.037a7.507,7.507,0,0,1-.476,2.484,5.232,5.232,0,0,1-2.992,2.992,7.512,7.512,0,0,1-2.483.476c-1.091.05-1.44.062-4.218.062s-3.127-.012-4.219-.062a7.512,7.512,0,0,1-2.483-.476A5.232,5.232,0,0,1,8.124,24.52a7.5,7.5,0,0,1-.476-2.483c-.05-1.091-.062-1.44-.062-4.219s.012-3.127.062-4.218a7.507,7.507,0,0,1,.475-2.484,5.235,5.235,0,0,1,2.993-2.992A7.514,7.514,0,0,1,13.6,7.648c1.091-.05,1.44-.062,4.218-.062s3.127.012,4.218.062a7.515,7.515,0,0,1,2.484.475,5.233,5.233,0,0,1,2.992,2.993,7.506,7.506,0,0,1,.476,2.484c.05,1.091.061,1.44.061,4.218S28.038,20.945,27.988,22.037Zm0,0"/></svg>