<svg xmlns="http://www.w3.org/2000/svg" width="70.879" height="70.87" viewBox="0 0 70.879 70.87"><defs><style>.a{fill:#fff;}</style></defs><g transform="translate(0 -0.002)"><path class="a" d="M30.083,20.8,15.366,10.1a1.775,1.775,0,0,0-2.819,1.432V32.92a1.769,1.769,0,0,0,.969,1.583,1.787,1.787,0,0,0,.807.191,1.764,1.764,0,0,0,1.043-.344L30.083,23.66a1.761,1.761,0,0,0,0-2.863Z" transform="translate(17.047 13.255)"/><path class="a" d="M35.441,0A35.435,35.435,0,1,0,70.879,35.443,35.437,35.437,0,0,0,35.441,0Zm0,64.957A29.521,29.521,0,1,1,64.957,35.443,29.516,29.516,0,0,1,35.441,64.959Z"/></g></svg>