<svg xmlns="http://www.w3.org/2000/svg" width="14.549" height="16.707" viewBox="0 0 14.549 16.707"><g transform="translate(0)"><g transform="translate(0)"><path d="M47.546,4.611l-.012-.021a.788.788,0,0,0-.059-.1L45.15.469A.942.942,0,0,0,44.336,0h-8a.942.942,0,0,0-.814.47l-2.362,4.1a.49.49,0,0,0-.047.115.827.827,0,0,0-.052.288V15.556a1.153,1.153,0,0,0,1.151,1.151H46.46a1.153,1.153,0,0,0,1.151-1.151V4.932c0-.014,0-.028,0-.042A.487.487,0,0,0,47.546,4.611ZM40.843.979h3.471L46.142,4.14h-5.3Zm-4.483,0h3.5V4.14H34.538ZM46.632,15.556a.172.172,0,0,1-.172.172H34.213a.172.172,0,0,1-.172-.172V5.12H46.632Z" transform="translate(-33.062)"/></g><g transform="translate(4.942 8.668)"><path d="M189.067,265.775a.49.49,0,0,0-.692,0l-2.186,2.186-.841-.841a.49.49,0,0,0-.692.692L185.842,269a.49.49,0,0,0,.692,0l2.533-2.533A.49.49,0,0,0,189.067,265.775Z" transform="translate(-184.512 -265.632)"/></g></g></svg>